# xmcd
#
# Track frame offsets:
#	150
#	12363
#	25746
#	43945
#	63636
#	80839
#	98411
#	116367
#	127728
#	143068
#	160806
#	173226
#	191581
#	199365
#	214115
#	248129
#	272882
#	290740
#
# Disc length: 4320 seconds
#
# Revision: 0
# Processed by: cddbd v1.5.1PL2 Copyright (c) Steve Scherf et al.
# Submitted via: dBpowerAMP V4.0
#
DISCID=0710de12
DTITLE=Marvin Gayle - Greatest Hits
DYEAR=1900
DGENRE=Blues
TTITLE0=Come get to this
TTITLE1=I'm gonna give you respect
TTITLE2=Just to keep you satisfied
TTITLE3=My love is growing
TTITLE4=Running from love
TTITLE5=The world is rated X
TTITLE6=Try it you'll like it
TTITLE7=Ain't no mountain high enough
TTITLE8=We can make it baby
TTITLE9=What's going on
TTITLE10=What's happening brothers
TTITLE11=Save the children
TTITLE12=God is love
TTITLE13=Mercy mercy me
TTITLE14=Right on
TTITLE15=Inner city blues
TTITLE16=Where are we going?
TTITLE17=You're the man
EXTD=
EXTT0=
EXTT1=
EXTT2=
EXTT3=
EXTT4=
EXTT5=
EXTT6=
EXTT7=
EXTT8=
EXTT9=
EXTT10=
EXTT11=
EXTT12=
EXTT13=
EXTT14=
EXTT15=
EXTT16=
EXTT17=
PLAYORDER=
